{"scene":0,"scenes":[{"nodes":[0]}],"asset":{"version":"2.0","generator":"https://github.com/mikedh/trimesh"},"accessors":[{"componentType":5125,"type":"SCALAR","bufferView":0,"count":14904,"max":[2502],"min":[0]},{"componentType":5126,"type":"VEC3","byteOffset":0,"bufferView":1,"count":2503,"max":[0.06077880039811134,0.18699601292610168,0.05871463939547539],"min":[-0.09438042342662811,0.033309899270534515,-0.0616791695356369]}],"meshes":[{"name":"bunny.obj","extras":{"processed":true},"primitives":[{"attributes":{"POSITION":1},"indices":0,"mode":4}]}],"nodes":[{"name":"world","children":[1]},{"name":"bunny.obj","mesh":0}],"buffers":[{"uri":"gltf_buffer_0.bin","byteLength":59616},{"uri":"gltf_buffer_1.bin","byteLength":30036}],"bufferViews":[{"buffer":0,"byteOffset":0,"byteLength":59616},{"buffer":1,"byteOffset":0,"byteLength":30036}]}