{
  "accessors": [
    {
      "bufferView": 2,
      "componentType": 5126,
      "count": 7586,
      "max": [
        96.17990112304688,
        53.92519760131836,
        -9.929369926452637
      ],
      "min": [
        -69.29850006103516,
        -61.32819747924805,
        -163.97000122070313
      ],
      "type": "VEC3"
    },
    {
      "bufferView": 2,
      "byteOffset": 91032,
      "componentType": 5126,
      "count": 7586,
      "max": [
        0.9994492530822754,
        0.9999934434890747,
        0.9999999403953552
      ],
      "min": [
        -0.9995468258857727,
        -0.9998782277107239,
        -1.0
      ],
      "type": "VEC3"
    },
    {
      "bufferView": 1,
      "componentType": 5126,
      "count": 7586,
      "max": [
        0.9833459854125977,
        0.9800369739532471
      ],
      "min": [
        0.026409000158309937,
        0.01996302604675293
      ],
      "type": "VEC2"
    },
    {
      "bufferView": 0,
      "componentType": 5125,
      "count": 28728,
      "type": "SCALAR"
    }
  ],
  "asset": {
    "extras": {
      "author": "likangning93 (https://sketchfab.com/likangning93)",
      "license": "CC-BY-4.0 (http://creativecommons.org/licenses/by/4.0/)",
      "source": "https://sketchfab.com/3d-models/duck-6e039c6c606c4c26a1359514352629fd",
      "title": "Duck"
    },
    "generator": "Sketchfab-12.65.0",
    "version": "2.0"
  },
  "bufferViews": [
    {
      "buffer": 0,
      "byteLength": 114912,
      "name": "floatBufferViews",
      "target": 34963
    },
    {
      "buffer": 0,
      "byteLength": 60688,
      "byteOffset": 114912,
      "byteStride": 8,
      "name": "floatBufferViews",
      "target": 34962
    },
    {
      "buffer": 0,
      "byteLength": 182064,
      "byteOffset": 175600,
      "byteStride": 12,
      "name": "floatBufferViews",
      "target": 34962
    }
  ],
  "buffers": [
    {
      "byteLength": 357664,
      "uri": "scene.bin"
    }
  ],
  "images": [
    {
      "uri": "textures/blinn3-fx_baseColor.png"
    }
  ],
  "materials": [
    {
      "name": "blinn3-fx",
      "pbrMetallicRoughness": {
        "baseColorTexture": {
          "index": 0
        },
        "metallicFactor": 0.0
      }
    }
  ],
  "meshes": [
    {
      "name": "Object_0",
      "primitives": [
        {
          "attributes": {
            "NORMAL": 1,
            "POSITION": 0,
            "TEXCOORD_0": 2
          },
          "indices": 3,
          "material": 0,
          "mode": 4
        }
      ]
    }
  ],
  "nodes": [
    {
      "children": [
        1
      ],
      "matrix": [
        1.0,
        0.0,
        0.0,
        0.0,
        0.0,
        2.220446049250313e-16,
        -1.0,
        0.0,
        0.0,
        1.0,
        2.220446049250313e-16,
        0.0,
        0.0,
        0.0,
        0.0,
        1.0
      ],
      "name": "Sketchfab_model"
    },
    {
      "children": [
        2
      ],
      "name": "root"
    },
    {
      "children": [
        3
      ],
      "matrix": [
        1.0,
        0.0,
        0.0,
        0.0,
        0.0,
        2.220446049250313e-16,
        1.0,
        0.0,
        0.0,
        -1.0,
        2.220446049250313e-16,
        0.0,
        0.0,
        0.0,
        0.0,
        1.0
      ],
      "name": "GLTF_SceneRootNode"
    },
    {
      "children": [
        4
      ],
      "matrix": [
        0.009999999776482582,
        0.0,
        0.0,
        0.0,
        0.0,
        -1.685874088641884e-09,
        0.010000000707805014,
        0.0,
        0.0,
        -0.010000000707805014,
        -1.685874088641884e-09,
        0.0,
        0.0,
        0.0,
        0.0,
        1.0
      ],
      "name": "Node_2"
    },
    {
      "children": [
        5
      ],
      "name": "LOD3spShape_1"
    },
    {
      "mesh": 0,
      "name": "Object_5"
    }
  ],
  "samplers": [
    {
      "magFilter": 9729,
      "minFilter": 9987,
      "wrapS": 10497,
      "wrapT": 10497
    }
  ],
  "scene": 0,
  "scenes": [
    {
      "name": "Sketchfab_Scene",
      "nodes": [
        0
      ]
    }
  ],
  "textures": [
    {
      "sampler": 0,
      "source": 0
    }
  ]
}
